<svg xmlns="http://www.w3.org/2000/svg" width="282.835" height="55" viewBox="0 0 282.835 55">
  <g id="white_logo" data-name="white logo" transform="translate(-81.894 -173.328)">
    <path id="Path_28" data-name="Path 28" d="M81.894,853.332h6.727a6.48,6.48,0,0,1,4.448,1.4,4.588,4.588,0,0,1,1.573,3.594q0,3.146-3.607,4.15a4.72,4.72,0,0,1,4.041,4.692,4.457,4.457,0,0,1-1.668,3.553,6.684,6.684,0,0,1-4.462,1.41H81.894Zm2.468,1.98V861.5h4.15a3.969,3.969,0,0,0,2.672-.827,2.814,2.814,0,0,0,.963-2.251,2.855,2.855,0,0,0-.963-2.265,3.93,3.93,0,0,0-2.672-.841Zm0,14.864h4.448a4.106,4.106,0,0,0,2.807-.9,3.1,3.1,0,0,0,1.017-2.455,3,3,0,0,0-1.1-2.454,4.475,4.475,0,0,0-2.916-.9H84.362Z" transform="translate(0 -659.523)" fill="#1c1c1c"/>
    <path id="Path_29" data-name="Path 29" d="M170.787,865.538V853.332h2.5v12.206a4.547,4.547,0,0,0,1.234,3.485,4.788,4.788,0,0,0,3.4,1.153,4.84,4.84,0,0,0,3.418-1.153,4.52,4.52,0,0,0,1.247-3.485V853.332h2.468v12.206a6.287,6.287,0,0,1-2.021,5.045,8.417,8.417,0,0,1-10.239,0A6.305,6.305,0,0,1,170.787,865.538Z" transform="translate(-59.844 -659.523)" fill="#1c1c1c"/>
    <path id="Path_30" data-name="Path 30" d="M266.077,857.959a2.565,2.565,0,0,0,.57,1.709,3.377,3.377,0,0,0,1.464,1,16.105,16.105,0,0,0,1.994.57q1.1.244,2.2.556a9.682,9.682,0,0,1,1.993.8,3.8,3.8,0,0,1,1.465,1.465,4.723,4.723,0,0,1,.57,2.414,5.156,5.156,0,0,1-1.682,3.824,6.258,6.258,0,0,1-4.543,1.628,7.658,7.658,0,0,1-4.652-1.316,4.2,4.2,0,0,1-1.79-3.567h2.631a2.943,2.943,0,0,0,1.017,2.061,4.022,4.022,0,0,0,2.7.787,4.183,4.183,0,0,0,2.848-.922,2.785,2.785,0,0,0,1.057-2.157,2.836,2.836,0,0,0-.569-1.9,3.427,3.427,0,0,0-1.465-.99,14.69,14.69,0,0,0-1.993-.556q-1.1-.23-2.2-.556a9.664,9.664,0,0,1-1.994-.827,3.867,3.867,0,0,1-1.464-1.492,4.853,4.853,0,0,1-.57-2.455,4.8,4.8,0,0,1,1.7-3.838,6.561,6.561,0,0,1,4.421-1.451,6.862,6.862,0,0,1,4.34,1.261,4.9,4.9,0,0,1,1.858,3.485h-2.739a2.771,2.771,0,0,0-1.044-1.9,3.794,3.794,0,0,0-2.523-.787,4.029,4.029,0,0,0-2.59.8A2.822,2.822,0,0,0,266.077,857.959Z" transform="translate(-122.368 -659.132)" fill="#1c1c1c"/>
    <path id="Path_31" data-name="Path 31" d="M354.277,872.129h-2.469v-18.8h2.469v8.707l7.73-8.707h3.228l-8.788,9.52,8.788,9.277h-3.282l-7.676-8.408Z" transform="translate(-181.709 -659.523)" fill="#1c1c1c"/>
    <path id="Path_32" data-name="Path 32" d="M547.143,852.585h4.638v19.041h-4.638v-7.893h-7.35v7.893h-4.638V852.585h4.638v7.622h7.35Z" transform="translate(-305.139 -659.02)" fill="#1c1c1c"/>
    <path id="Path_33" data-name="Path 33" d="M636.094,868.49a10.04,10.04,0,0,1,0-13.982,10.1,10.1,0,0,1,13.86,0,10.092,10.092,0,0,1-.013,13.982,10.047,10.047,0,0,1-13.847,0Zm10.578-3.011a6.488,6.488,0,0,0,0-7.974,5.24,5.24,0,0,0-7.324,0,6.488,6.488,0,0,0,0,7.974,5.24,5.24,0,0,0,7.324,0Z" transform="translate(-371.184 -658.461)" fill="#1c1c1c"/>
    <path id="Path_34" data-name="Path 34" d="M736.263,856.111v-3.526h15.026v3.526h-5.208v15.515h-4.638V856.111Z" transform="translate(-440.527 -659.02)" fill="#1c1c1c"/>
    <path id="Path_35" data-name="Path 35" d="M840.417,852.418v3.526h-6.889v4.1H839.6v3.526h-6.076v4.421h6.889v3.526H828.889v-19.1Z" transform="translate(-502.884 -658.907)" fill="#1c1c1c"/>
    <path id="Path_36" data-name="Path 36" d="M914.544,852.585h4.638V868.1h5.777v3.526H914.544Z" transform="translate(-560.547 -659.02)" fill="#1c1c1c"/>
    <path id="Path_37" data-name="Path 37" d="M467.461,794.766a4.981,4.981,0,0,0-4.869-4.108,4.81,4.81,0,0,0-.715.053,4.86,4.86,0,0,0-3.918,3.075,4.272,4.272,0,0,0-.274,2.563,9.45,9.45,0,0,0,.624,1.847,32.862,32.862,0,0,0,1.923,3.647l.049.084.524.843c.339.537.644,1.012.933,1.452a.981.981,0,0,0,.829.493h0c.19,0,.39,0,.673-.431.126-.221,2.485-3.884,2.607-4.108a19.739,19.739,0,0,0,1.39-3.053A4.681,4.681,0,0,0,467.461,794.766Zm-4.9,3.247a2.235,2.235,0,1,1,2.235-2.235A2.235,2.235,0,0,1,462.562,798.014Z" transform="translate(-252.928 -617.33)" fill="#1bafea"/>
    <g id="Group_12" data-name="Group 12" transform="translate(320.395 220.385)">
      <g id="Group_11" data-name="Group 11" transform="translate(0 0)">
        <path id="Path_38" data-name="Path 38" d="M814.322,952a1.283,1.283,0,1,1-.376-.925A1.257,1.257,0,0,1,814.322,952Z" transform="translate(-811.721 -945.458)" fill="#1bafea"/>
        <path id="Path_39" data-name="Path 39" d="M834.253,941.512a4.412,4.412,0,0,1,0-5.78,3.774,3.774,0,0,1,2.789-1.078,4.046,4.046,0,0,1,2.407.7,3.341,3.341,0,0,1,1.307,2.01h-2.573a1.131,1.131,0,0,0-1.092-.7,1.274,1.274,0,0,0-1.127.535,2.887,2.887,0,0,0,0,2.824,1.226,1.226,0,0,0,1.078.535,1.336,1.336,0,0,0,.7-.153,1.287,1.287,0,0,0,.445-.542h2.573a3.45,3.45,0,0,1-1.321,1.989,3.924,3.924,0,0,1-2.393.737A3.76,3.76,0,0,1,834.253,941.512Z" transform="translate(-826.164 -934.654)" fill="#1bafea"/>
        <path id="Path_40" data-name="Path 40" d="M870.491,941.5a3.775,3.775,0,0,1-1.175-2.893,3.721,3.721,0,0,1,1.168-2.872,4.413,4.413,0,0,1,5.78,0,3.734,3.734,0,0,1,1.161,2.872,3.81,3.81,0,0,1-1.155,2.893,4.012,4.012,0,0,1-2.88,1.1A4.086,4.086,0,0,1,870.491,941.5Zm4.041-1.433a2.03,2.03,0,0,0,.473-1.447,1.967,1.967,0,0,0-.487-1.44,1.568,1.568,0,0,0-1.155-.494,1.545,1.545,0,0,0-1.147.494,2.383,2.383,0,0,0,.014,2.887,1.578,1.578,0,0,0,1.161.5A1.513,1.513,0,0,0,874.533,940.065Z" transform="translate(-850.494 -934.654)" fill="#1bafea"/>
        <path id="Path_41" data-name="Path 41" d="M909.793,934.737v1.141a2.54,2.54,0,0,1,2.351-1.224,3.019,3.019,0,0,1,1.537.39,2.677,2.677,0,0,1,1.05,1.113,3.319,3.319,0,0,1,1.12-1.092,3.234,3.234,0,0,1,3.791.466,3.388,3.388,0,0,1,.835,2.435V942.5h-2.365v-4.215a1.6,1.6,0,0,0-.4-1.161,1.657,1.657,0,0,0-2.184,0,1.6,1.6,0,0,0-.4,1.161V942.5H912.77v-4.215a1.6,1.6,0,0,0-.4-1.161,1.657,1.657,0,0,0-2.184,0,1.6,1.6,0,0,0-.4,1.161V942.5h-2.379v-7.762Z" transform="translate(-876.142 -934.654)" fill="#1bafea"/>
      </g>
    </g>
    <g id="Group_13" data-name="Group 13" transform="translate(197.798 193.904)">
      <path id="Path_42" data-name="Path 42" d="M452.827,873.366l-1.341-3.774h-7.649l-1.341,3.774h-2.309l6.258-17.208h2.483l6.233,17.208Zm-8.344-5.562h6.357l-3.178-8.89Z" transform="translate(-439.005 -855.329)" fill="#1c1c1c"/>
      <path id="Path_43" data-name="Path 43" d="M453.906,872.488h-4.1l-1.341-3.775h-6.479l-1.341,3.775h-4.077l6.86-18.866h3.645Zm-2.931-1.658h.568L445.91,855.28h-.494l4.164,11.646h-8.71l4.164-11.646h-.445l-5.655,15.551h.541l1.341-3.774h8.818Zm-7.752-5.562h4l-2-5.6Z" transform="translate(-436.568 -853.622)" fill="#1c1c1c"/>
    </g>
    <g id="Group_17" data-name="Group 17" transform="translate(208.295 193.904)">
      <g id="Group_16" data-name="Group 16" transform="translate(0)">
        <g id="Group_15" data-name="Group 15">
          <g id="Group_14" data-name="Group 14">
            <path id="Path_44" data-name="Path 44" d="M474.971,853.622h-6.283l6.867,18.867h1.881l-1.639-4.5h2.416l1.639,4.5h1.986Zm.346,10.934h-.8l-.666-1.829h.8Zm-1.048-2.88h-.8l-.666-1.828h.8ZM473.3,859h-.8l-.666-1.828h.8Zm3.669,5.555h-.8l-.666-1.829h.8Zm-1.048-2.88h-.8l-.666-1.828h.8ZM474.942,859h-.8l-.665-1.828h.8Z" transform="translate(-468.688 -853.622)" fill="#1bafea"/>
          </g>
        </g>
      </g>
    </g>
  </g>
</svg>
