<svg xmlns="http://www.w3.org/2000/svg" width="23.646" height="39.443" viewBox="0 0 23.646 39.443">
  <g id="Group_16080" data-name="Group 16080" transform="translate(-197.798 -173.328)">
    <path id="Path_37" data-name="Path 37" d="M467.461,794.766a4.981,4.981,0,0,0-4.869-4.108,4.81,4.81,0,0,0-.715.053,4.86,4.86,0,0,0-3.918,3.075,4.272,4.272,0,0,0-.274,2.563,9.45,9.45,0,0,0,.624,1.847,32.862,32.862,0,0,0,1.923,3.647l.049.084.524.843c.339.537.644,1.012.933,1.452a.981.981,0,0,0,.829.493h0c.19,0,.39,0,.673-.431.126-.221,2.485-3.884,2.607-4.108a19.739,19.739,0,0,0,1.39-3.053A4.681,4.681,0,0,0,467.461,794.766Zm-4.9,3.247a2.235,2.235,0,1,1,2.235-2.235A2.235,2.235,0,0,1,462.562,798.014Z" transform="translate(-252.928 -617.33)" fill="#1bafea"/>
    <g id="Group_13" data-name="Group 13" transform="translate(197.798 193.904)">
      <path id="Path_42" data-name="Path 42" d="M452.827,873.366l-1.341-3.774h-7.649l-1.341,3.774h-2.309l6.258-17.208h2.483l6.233,17.208Zm-8.344-5.562h6.357l-3.178-8.89Z" transform="translate(-439.005 -855.329)" fill="#1c1c1c"/>
      <path id="Path_43" data-name="Path 43" d="M453.906,872.488h-4.1l-1.341-3.775h-6.479l-1.341,3.775h-4.077l6.86-18.866h3.645Zm-2.931-1.658h.568L445.91,855.28h-.494l4.164,11.646h-8.71l4.164-11.646h-.445l-5.655,15.551h.541l1.341-3.774h8.818Zm-7.752-5.562h4l-2-5.6Z" transform="translate(-436.568 -853.622)" fill="#1c1c1c"/>
    </g>
    <g id="Group_17" data-name="Group 17" transform="translate(208.295 193.904)">
      <g id="Group_16" data-name="Group 16" transform="translate(0)">
        <g id="Group_15" data-name="Group 15">
          <g id="Group_14" data-name="Group 14">
            <path id="Path_44" data-name="Path 44" d="M474.971,853.622h-6.283l6.867,18.867h1.881l-1.639-4.5h2.416l1.639,4.5h1.986Zm.346,10.934h-.8l-.666-1.829h.8Zm-1.048-2.88h-.8l-.666-1.828h.8ZM473.3,859h-.8l-.666-1.828h.8Zm3.669,5.555h-.8l-.666-1.829h.8Zm-1.048-2.88h-.8l-.666-1.828h.8ZM474.942,859h-.8l-.665-1.828h.8Z" transform="translate(-468.688 -853.622)" fill="#1bafea"/>
          </g>
        </g>
      </g>
    </g>
  </g>
</svg>
