<svg xmlns="http://www.w3.org/2000/svg" width="30" height="30" viewBox="0 0 30 30">
  <g id="Group_16073" data-name="Group 16073" transform="translate(-279.921 -100)">
    <g id="Path_3008" data-name="Path 3008" transform="translate(279.921 100)" fill="#fff">
      <path d="M 24 29.5 L 6 29.5 C 2.967289924621582 29.5 0.5 27.0327091217041 0.5 24 L 0.5 6 C 0.5 2.967289924621582 2.967289924621582 0.5 6 0.5 L 24 0.5 C 27.0327091217041 0.5 29.5 2.967289924621582 29.5 6 L 29.5 24 C 29.5 27.0327091217041 27.0327091217041 29.5 24 29.5 Z" stroke="none"/>
      <path d="M 6 1 C 3.242990493774414 1 1 3.242990493774414 1 6 L 1 24 C 1 26.75700950622559 3.242990493774414 29 6 29 L 24 29 C 26.75700950622559 29 29 26.75700950622559 29 24 L 29 6 C 29 3.242990493774414 26.75700950622559 1 24 1 L 6 1 M 6 0 L 24 0 C 27.3137092590332 0 30 2.686290740966797 30 6 L 30 24 C 30 27.3137092590332 27.3137092590332 30 24 30 L 6 30 C 2.686290740966797 30 0 27.3137092590332 0 24 L 0 6 C 0 2.686290740966797 2.686290740966797 0 6 0 Z" stroke="none" fill="#1f2937"/>
    </g>
    <path id="bath" d="M17.806,10H4.2V5.531a1.58,1.58,0,0,1,.832-1.408,1.6,1.6,0,0,1,.918-.185,2.794,2.794,0,0,0,.67,2.845l.849.849a.8.8,0,0,0,1.132,0L11.432,4.8a.8.8,0,0,0,0-1.132l-.849-.849a2.8,2.8,0,0,0-3.625-.274A3.2,3.2,0,0,0,2.6,5.531V10H1.8a.8.8,0,1,0,0,1.6h.8v2.4a2.4,2.4,0,0,0,1.6,2.253v.948a.8.8,0,0,0,1.6,0v-.8h8v.8a.8.8,0,0,0,1.6,0v-.948a2.4,2.4,0,0,0,1.6-2.253v-2.4h.8a.8.8,0,1,0,0-1.6ZM7.754,3.954a1.2,1.2,0,0,1,1.7,0l.283.283-1.7,1.7-.283-.283a1.2,1.2,0,0,1,0-1.7Zm7.651,10.052a.8.8,0,0,1-.8.8H5a.8.8,0,0,1-.8-.8v-2.4h11.2Z" transform="translate(285.126 104.992)" fill="#1f2937"/>
  </g>
</svg>
