<svg xmlns="http://www.w3.org/2000/svg" width="30" height="30" viewBox="0 0 30 30">
  <g id="Group_16066" data-name="Group 16066" transform="translate(-228.921 -100)">
    <g id="Path_3009" data-name="Path 3009" transform="translate(228.921 100)" fill="#fff">
      <path d="M 24 29.5 L 6 29.5 C 2.967289924621582 29.5 0.5 27.0327091217041 0.5 24 L 0.5 6 C 0.5 2.967289924621582 2.967289924621582 0.5 6 0.5 L 24 0.5 C 27.0327091217041 0.5 29.5 2.967289924621582 29.5 6 L 29.5 24 C 29.5 27.0327091217041 27.0327091217041 29.5 24 29.5 Z" stroke="none"/>
      <path d="M 6 1 C 3.242990493774414 1 1 3.242990493774414 1 6 L 1 24 C 1 26.75700950622559 3.242990493774414 29 6 29 L 24 29 C 26.75700950622559 29 29 26.75700950622559 29 24 L 29 6 C 29 3.242990493774414 26.75700950622559 1 24 1 L 6 1 M 6 0 L 24 0 C 27.3137092590332 0 30 2.686290740966797 30 6 L 30 24 C 30 27.3137092590332 27.3137092590332 30 24 30 L 6 30 C 2.686290740966797 30 0 27.3137092590332 0 24 L 0 6 C 0 2.686290740966797 2.686290740966797 0 6 0 Z" stroke="none" fill="#1f2937"/>
    </g>
    <g id="sports-car" transform="translate(236.107 109)">
      <g id="Group_25" data-name="Group 25" transform="translate(0 0)">
        <path id="Path_8" data-name="Path 8" d="M16.341,9.306a.423.423,0,0,0-.326-.155h-1.6A5.453,5.453,0,0,0,12.921,6.7c-2.022-1.33-7.385-1.33-9.407,0A5.48,5.48,0,0,0,2.02,9.151H.421a.421.421,0,0,0-.412.506l.237,1.148a.421.421,0,0,0,.412.335h.474A2.842,2.842,0,0,0,.449,13a2.782,2.782,0,0,0,.879,2.089l.019.015v1.606a.632.632,0,0,0,.631.631H3.454a.632.632,0,0,0,.631-.631v-.646H12.35v.646a.632.632,0,0,0,.631.631h1.475a.632.632,0,0,0,.631-.631V15.133a2.887,2.887,0,0,0,.184-3.993h.505a.419.419,0,0,0,.412-.336l.237-1.148A.424.424,0,0,0,16.341,9.306ZM4.207,7.759c1.612-1.061,6.409-1.061,8.019,0a5.2,5.2,0,0,1,1.085,2.052H3.123A5.2,5.2,0,0,1,4.207,7.759Zm-1.888,5.4A1.242,1.242,0,1,1,3.561,14.4,1.242,1.242,0,0,1,2.319,13.156ZM12.89,14.4a1.242,1.242,0,1,1,1.242-1.242A1.242,1.242,0,0,1,12.89,14.4Z" transform="translate(0 -5.707)" fill="#1f2937"/>
      </g>
    </g>
  </g>
</svg>
