<svg xmlns="http://www.w3.org/2000/svg" width="30" height="30" viewBox="0 0 30 30">
  <g id="Group_16069" data-name="Group 16069" transform="translate(-428.921 -100)">
    <g id="Path_3006" data-name="Path 3006" transform="translate(428.921 100)" fill="#fff">
      <path d="M 24 29.5 L 6 29.5 C 2.967289924621582 29.5 0.5 27.0327091217041 0.5 24 L 0.5 6 C 0.5 2.967289924621582 2.967289924621582 0.5 6 0.5 L 24 0.5 C 27.0327091217041 0.5 29.5 2.967289924621582 29.5 6 L 29.5 24 C 29.5 27.0327091217041 27.0327091217041 29.5 24 29.5 Z" stroke="none"/>
      <path d="M 6 1 C 3.242990493774414 1 1 3.242990493774414 1 6 L 1 24 C 1 26.75700950622559 3.242990493774414 29 6 29 L 24 29 C 26.75700950622559 29 29 26.75700950622559 29 24 L 29 6 C 29 3.242990493774414 26.75700950622559 1 24 1 L 6 1 M 6 0 L 24 0 C 27.3137092590332 0 30 2.686290740966797 30 6 L 30 24 C 30 27.3137092590332 27.3137092590332 30 24 30 L 6 30 C 2.686290740966797 30 0 27.3137092590332 0 24 L 0 6 C 0 2.686290740966797 2.686290740966797 0 6 0 Z" stroke="none" fill="#1f2937"/>
    </g>
    <g id="Clocks_1_" transform="translate(435.719 110.305)">
      <path id="Clocks" d="M16.393,17.2a.875.875,0,0,0-.668-.326h-.378v-.305a1.032,1.032,0,0,0-1.062-1h-.5V15a.984.984,0,0,0-.31-.71,1.1,1.1,0,0,0-1.461,0,.984.984,0,0,0-.31.711V17.65H4.942V15a.983.983,0,0,0-.31-.71,1.1,1.1,0,0,0-1.461,0,.983.983,0,0,0-.31.71v.564H2.3a1.034,1.034,0,0,0-.7.267.918.918,0,0,0-.3.672v.361H.926a.878.878,0,0,0-.671.328A1.143,1.143,0,0,0,0,17.928v1.523a1.142,1.142,0,0,0,.255.731.878.878,0,0,0,.671.328H1.3v.361a.918.918,0,0,0,.3.672,1.033,1.033,0,0,0,.7.267h.559v.564a.983.983,0,0,0,.31.71,1.073,1.073,0,0,0,1.461,0,.983.983,0,0,0,.31-.71V19.73h6.763v2.645a.983.983,0,0,0,.31.71,1.073,1.073,0,0,0,1.461,0,.984.984,0,0,0,.31-.71v-.564h.5a1.031,1.031,0,0,0,1.062-1v-.305h.378a.877.877,0,0,0,.668-.326,1.137,1.137,0,0,0,.254-.728V17.924A1.138,1.138,0,0,0,16.393,17.2ZM.926,19.99a.356.356,0,0,1-.271-.14.629.629,0,0,1-.135-.4V17.928a.629.629,0,0,1,.135-.4.356.356,0,0,1,.271-.14H1.3v2.6Zm1.376,1.3a.52.52,0,0,1-.348-.13.391.391,0,0,1-.133-.289V16.508a.391.391,0,0,1,.132-.289.522.522,0,0,1,.349-.131h.559v5.2Zm2.12,1.084a.455.455,0,0,1-.147.332.573.573,0,0,1-.746,0,.454.454,0,0,1-.147-.332V15a.455.455,0,0,1,.147-.332.553.553,0,0,1,.747,0A.455.455,0,0,1,4.422,15v7.37Zm.52-3.165V18.17h6.763v1.04Zm8.324,3.165a.455.455,0,0,1-.147.332.573.573,0,0,1-.746,0,.454.454,0,0,1-.147-.332V15a.455.455,0,0,1,.147-.332.553.553,0,0,1,.747,0,.454.454,0,0,1,.147.332v7.37Zm1.561-1.559a.512.512,0,0,1-.542.475h-.5v-5.2h.5a.512.512,0,0,1,.542.475v4.252Zm1.3-1.36a.626.626,0,0,1-.134.4.353.353,0,0,1-.268.139h-.378v-2.6h.378a.353.353,0,0,1,.268.139.624.624,0,0,1,.134.4Z" transform="translate(0 -14.017)" fill="#1f2937"/>
    </g>
  </g>
</svg>
