<svg xmlns="http://www.w3.org/2000/svg" width="30" height="30" viewBox="0 0 30 30">
  <g id="Group_16071" data-name="Group 16071" transform="translate(-480.285 -100)">
    <g id="Path_95" data-name="Path 95" transform="translate(480.285 100)" fill="#fff">
      <path d="M 24 29.5 L 6 29.5 C 2.967289924621582 29.5 0.5 27.0327091217041 0.5 24 L 0.5 6 C 0.5 2.967289924621582 2.967289924621582 0.5 6 0.5 L 24 0.5 C 27.0327091217041 0.5 29.5 2.967289924621582 29.5 6 L 29.5 24 C 29.5 27.0327091217041 27.0327091217041 29.5 24 29.5 Z" stroke="none"/>
      <path d="M 6 1 C 3.242990493774414 1 1 3.242990493774414 1 6 L 1 24 C 1 26.75700950622559 3.242990493774414 29 6 29 L 24 29 C 26.75700950622559 29 29 26.75700950622559 29 24 L 29 6 C 29 3.242990493774414 26.75700950622559 1 24 1 L 6 1 M 6 0 L 24 0 C 27.3137092590332 0 30 2.686290740966797 30 6 L 30 24 C 30 27.3137092590332 27.3137092590332 30 24 30 L 6 30 C 2.686290740966797 30 0 27.3137092590332 0 24 L 0 6 C 0 2.686290740966797 2.686290740966797 0 6 0 Z" stroke="none" fill="#1f2937"/>
    </g>
    <g id="Group_16070" data-name="Group 16070">
      <circle id="Ellipse_52" data-name="Ellipse 52" cx="1" cy="1" r="1" transform="translate(493.739 114)" fill="none" stroke="#1f2937" stroke-linecap="round" stroke-linejoin="round" stroke-width="1"/>
      <circle id="Ellipse_53" data-name="Ellipse 53" cx="1" cy="1" r="1" transform="translate(500.082 114)" fill="none" stroke="#1f2937" stroke-linecap="round" stroke-linejoin="round" stroke-width="1"/>
      <circle id="Ellipse_54" data-name="Ellipse 54" cx="1" cy="1" r="1" transform="translate(487.395 114)" fill="none" stroke="#1f2937" stroke-linecap="round" stroke-linejoin="round" stroke-width="1"/>
    </g>
  </g>
</svg>
