<svg xmlns="http://www.w3.org/2000/svg" width="30" height="30" viewBox="0 0 30 30">
  <g id="Group_16068" data-name="Group 16068" transform="translate(-379.921 -100)">
    <g id="Path_3007" data-name="Path 3007" transform="translate(379.921 100)" fill="#fff">
      <path d="M 24 29.5 L 6 29.5 C 2.967289924621582 29.5 0.5 27.0327091217041 0.5 24 L 0.5 6 C 0.5 2.967289924621582 2.967289924621582 0.5 6 0.5 L 24 0.5 C 27.0327091217041 0.5 29.5 2.967289924621582 29.5 6 L 29.5 24 C 29.5 27.0327091217041 27.0327091217041 29.5 24 29.5 Z" stroke="none"/>
      <path d="M 6 1 C 3.242990493774414 1 1 3.242990493774414 1 6 L 1 24 C 1 26.75700950622559 3.242990493774414 29 6 29 L 24 29 C 26.75700950622559 29 29 26.75700950622559 29 24 L 29 6 C 29 3.242990493774414 26.75700950622559 1 24 1 L 6 1 M 6 0 L 24 0 C 27.3137092590332 0 30 2.686290740966797 30 6 L 30 24 C 30 27.3137092590332 27.3137092590332 30 24 30 L 6 30 C 2.686290740966797 30 0 27.3137092590332 0 24 L 0 6 C 0 2.686290740966797 2.686290740966797 0 6 0 Z" stroke="none" fill="#1f2937"/>
    </g>
    <g id="wifi" transform="translate(388.076 110)">
      <path id="Path_88" data-name="Path 88" d="M5,11.587a6.841,6.841,0,0,1,8.757,0" transform="translate(-2.773 -6.893)" fill="rgba(0,0,0,0)" stroke="#1f2937" stroke-linecap="round" stroke-linejoin="round" stroke-width="1.2"/>
      <path id="Path_89" data-name="Path 89" d="M1.42,7.489a9.951,9.951,0,0,1,13.16,0" transform="translate(-1.42 -5.003)" fill="rgba(0,0,0,0)" stroke="#1f2937" stroke-linecap="round" stroke-linejoin="round" stroke-width="1.2"/>
      <path id="Path_90" data-name="Path 90" d="M8.53,15.691a3.732,3.732,0,0,1,4.322,0" transform="translate(-4.108 -8.783)" fill="rgba(0,0,0,0)" stroke="#1f2937" stroke-linecap="round" stroke-linejoin="round" stroke-width="1.2"/>
      <line id="Line_24" data-name="Line 24" transform="translate(6.58 9.327)" fill="none" stroke="#1f2937" stroke-linecap="round" stroke-linejoin="round" stroke-width="1.2"/>
    </g>
  </g>
</svg>
