<svg xmlns="http://www.w3.org/2000/svg" width="30" height="30" viewBox="0 0 30 30">
  <g id="Group_16067" data-name="Group 16067" transform="translate(-331.194 -100)">
    <g id="Path_93" data-name="Path 93" transform="translate(331.194 100)" fill="#fff">
      <path d="M 24 29.5 L 6 29.5 C 2.967289924621582 29.5 0.5 27.0327091217041 0.5 24 L 0.5 6 C 0.5 2.967289924621582 2.967289924621582 0.5 6 0.5 L 24 0.5 C 27.0327091217041 0.5 29.5 2.967289924621582 29.5 6 L 29.5 24 C 29.5 27.0327091217041 27.0327091217041 29.5 24 29.5 Z" stroke="none"/>
      <path d="M 6 1 C 3.242990493774414 1 1 3.242990493774414 1 6 L 1 24 C 1 26.75700950622559 3.242990493774414 29 6 29 L 24 29 C 26.75700950622559 29 29 26.75700950622559 29 24 L 29 6 C 29 3.242990493774414 26.75700950622559 1 24 1 L 6 1 M 6 0 L 24 0 C 27.3137092590332 0 30 2.686290740966797 30 6 L 30 24 C 30 27.3137092590332 27.3137092590332 30 24 30 L 6 30 C 2.686290740966797 30 0 27.3137092590332 0 24 L 0 6 C 0 2.686290740966797 2.686290740966797 0 6 0 Z" stroke="none" fill="#1f2937"/>
    </g>
    <g id="glass-and-bottle-of-wine" transform="translate(340.201 107)">
      <path id="Path_15" data-name="Path 15" d="M8.318,8.15a3.759,3.759,0,0,0-.48-1.863l-.075-.131H3.083l-.073.131A3.765,3.765,0,0,0,2.53,8.15a3.252,3.252,0,0,0,2.483,3.339v3.966c-.809.033-1.412.156-1.412.3,0,.173.822.312,1.836.312s1.838-.139,1.838-.312c0-.146-.6-.269-1.412-.3V11.485A3.262,3.262,0,0,0,8.318,8.15ZM5.423,11A2.653,2.653,0,0,1,3.046,8.148a3.27,3.27,0,0,1,.343-1.477H7.458A3.284,3.284,0,0,1,7.8,8.148,2.652,2.652,0,0,1,5.423,11Zm7.85-9.22H11.215V0h2.058Zm0,2.212V2.334H11.215V4A2.5,2.5,0,0,0,9.738,6.28v9.88h5.011V6.28A2.5,2.5,0,0,0,13.273,4Zm1.033,9.644H10.225v-4.9h4.081ZM7.586,8.2s-.108,2.589-2.128,2.589S3.166,8.2,3.166,8.2Z" transform="translate(-2.53)" fill="#1f2937"/>
    </g>
  </g>
</svg>
